<svg width="28" height="18" viewBox="0 0 28 18" fill="none" xmlns="http://www.w3.org/2000/svg">
<path fill-rule="evenodd" clip-rule="evenodd" d="M4.93115 8.428L8.31595 11.8128C8.44256 11.9308 8.5441 12.073 8.61453 12.2311C8.68497 12.3892 8.72284 12.5598 8.72589 12.7328C8.72894 12.9059 8.69711 13.0777 8.6323 13.2382C8.56749 13.3986 8.47103 13.5444 8.34866 13.6668C8.22629 13.7891 8.08053 13.8856 7.92008 13.9504C7.75962 14.0152 7.58775 14.047 7.41473 14.044C7.2417 14.0409 7.07107 14.0031 6.913 13.9326C6.75493 13.8622 6.61266 13.7607 6.49469 13.6341L0.910631 8.05L0 7.13937L0.910631 6.22874L6.49469 0.644682C6.73897 0.417059 7.06206 0.293139 7.39591 0.299029C7.72975 0.304919 8.04827 0.44016 8.28437 0.676259C8.52047 0.912358 8.65571 1.23088 8.6616 1.56472C8.66749 1.89857 8.54357 2.22166 8.31595 2.46594L4.93115 5.85074H21.9067C23.3877 5.85074 24.808 6.43906 25.8552 7.48627C26.9024 8.53349 27.4907 9.95381 27.4907 11.4348C27.4907 12.9158 26.9024 14.3361 25.8552 15.3833C24.808 16.4305 23.3877 17.0189 21.9067 17.0189H18.4703C18.1286 17.0189 17.8008 16.8831 17.5591 16.6414C17.3175 16.3998 17.1817 16.072 17.1817 15.7302C17.1817 15.3885 17.3175 15.0607 17.5591 14.819C17.8008 14.5774 18.1286 14.4416 18.4703 14.4416H21.9067C22.7041 14.4416 23.4689 14.1248 24.0328 13.5609C24.5967 12.997 24.9135 12.2322 24.9135 11.4348C24.9135 10.6373 24.5967 9.87255 24.0328 9.30867C23.4689 8.74478 22.7041 8.428 21.9067 8.428H4.93115Z" fill="#FFFFF0"/>
</svg>
