<svg width="26" height="30" viewBox="0 0 26 30" fill="none" xmlns="http://www.w3.org/2000/svg">
<path d="M24.4352 5.49894C24.3207 5.34707 24.1985 5.20128 24.0688 5.06214C24.1992 4.71474 24.2982 4.35636 24.3647 3.99129C24.561 2.65582 24.3906 1.29211 23.8716 0.046045C23.8716 0.046045 22.2935 -0.447111 18.6723 1.99049C17.1349 1.56601 15.547 1.3527 13.9521 1.35643C12.3526 1.35363 10.7601 1.56691 9.2178 1.99049C5.59663 -0.475291 4.01853 0.046045 4.01853 0.046045C3.50576 1.27891 3.33538 2.62736 3.52537 3.94902C3.59223 4.32927 3.69605 4.70208 3.83535 5.06214C3.70854 5.20305 3.58173 5.35804 3.46901 5.49894C2.41758 6.81781 1.85945 8.4623 1.89091 10.1487C1.88757 10.5487 1.90638 10.9485 1.94727 11.3464C2.39816 17.5883 6.55476 19.0396 10.5141 19.4905C9.9537 20.0116 9.57371 20.6975 9.42915 21.449C9.29819 21.9502 9.23656 22.4669 9.24598 22.9848V24.8306C7.66929 24.9715 6.05174 24.7419 5.55013 23.3357C5.01167 21.9897 4.11867 20.8148 2.96599 19.9357C2.88175 19.8901 2.8016 19.8373 2.72646 19.7779C2.62524 19.5119 2.44591 19.2827 2.21204 19.1205C1.97816 18.9583 1.70069 18.8707 1.41607 18.8691H1.40903C1.03655 18.8691 0.679226 19.0166 0.415186 19.2793C0.151145 19.542 0.00187405 19.8986 1.16668e-05 20.2711C-0.00421538 21.4152 1.14132 22.1549 1.61052 22.4057C2.1587 22.9581 2.59967 23.6074 2.91104 24.3206C3.42392 25.762 4.92452 27.953 9.20371 27.6684L9.20653 27.8065L9.21216 28.1841C9.21216 28.5578 9.36061 28.9162 9.62485 29.1804C9.8891 29.4447 10.2475 29.5931 10.6212 29.5931H17.2633C17.637 29.5931 17.9954 29.4447 18.2596 29.1804C18.5239 28.9162 18.6723 28.5578 18.6723 28.1841C18.6723 28.1841 18.6836 23.7316 18.6836 22.9848C18.693 22.4669 18.6313 21.9502 18.5004 21.449L18.4976 21.4406L18.5032 21.449C18.4905 21.3997 18.4722 21.3602 18.4581 21.3123C18.3011 20.6142 17.9379 19.9795 17.4155 19.4905L17.4324 19.5201L17.4042 19.4919C21.3635 19.041 25.4919 17.5615 25.9428 11.3478C25.9837 10.9499 26.0025 10.5501 25.9992 10.1501C26.0242 8.46705 25.4723 6.82475 24.4352 5.49894Z" fill="#262C32"/>
</svg>
