<svg width="29" height="28" viewBox="0 0 29 28" fill="none" xmlns="http://www.w3.org/2000/svg">
<path d="M14.3094 0C12.4302 0 10.5695 0.370123 8.83342 1.08924C7.09732 1.80835 5.51987 2.86237 4.19112 4.19112C1.50759 6.87465 0 10.5143 0 14.3094C0 20.6341 4.10679 26.0001 9.78762 27.9033C10.5031 28.0178 10.732 27.5742 10.732 27.1878V24.7695C6.76834 25.6281 5.92408 22.8521 5.92408 22.8521C5.26585 21.1922 4.33574 20.7486 4.33574 20.7486C3.03359 19.8614 4.43591 19.89 4.43591 19.89C5.86685 19.9902 6.62524 21.3639 6.62524 21.3639C7.87016 23.5389 9.97364 22.895 10.7893 22.5516C10.9181 21.6215 11.2901 20.9919 11.6908 20.6341C8.51408 20.2764 5.18 19.0458 5.18 13.5939C5.18 12.0056 5.72375 10.732 6.65386 9.71607C6.51077 9.35834 6.00994 7.87016 6.79696 5.93839C6.79696 5.93839 7.99894 5.55204 10.732 7.39795C11.8625 7.08314 13.0931 6.92574 14.3094 6.92574C15.5257 6.92574 16.7563 7.08314 17.8867 7.39795C20.6198 5.55204 21.8218 5.93839 21.8218 5.93839C22.6088 7.87016 22.108 9.35834 21.9649 9.71607C22.895 10.732 23.4388 12.0056 23.4388 13.5939C23.4388 19.0601 20.0904 20.2621 16.8994 20.6198C17.4145 21.0634 17.8867 21.9363 17.8867 23.2671V27.1878C17.8867 27.5742 18.1157 28.0321 18.8455 27.9033C24.5263 25.9858 28.6188 20.6341 28.6188 14.3094C28.6188 12.4302 28.2486 10.5695 27.5295 8.83342C26.8104 7.09732 25.7564 5.51987 24.4276 4.19112C23.0989 2.86237 21.5214 1.80835 19.7853 1.08924C18.0492 0.370123 16.1885 0 14.3094 0V0Z" fill="#262C32"/>
</svg>
