<svg width="29" height="29" viewBox="0 0 29 29" fill="none" xmlns="http://www.w3.org/2000/svg">
<path d="M14.5467 0C18.4345 0 18.9196 0.0143093 20.445 0.0858562C21.969 0.157403 23.0064 0.39637 23.9193 0.751243C24.8637 1.1147 25.6594 1.60694 26.455 2.40111C27.1826 3.11643 27.7456 3.98171 28.1048 4.93674C28.4583 5.84824 28.6987 6.8871 28.7702 8.41105C28.8375 9.93643 28.8561 10.4215 28.8561 14.3094C28.8561 18.1972 28.8418 18.6823 28.7702 20.2077C28.6987 21.7317 28.4583 22.7691 28.1048 23.682C27.7466 24.6376 27.1835 25.5031 26.455 26.2176C25.7394 26.945 24.8742 27.508 23.9193 27.8675C23.0078 28.221 21.969 28.4614 20.445 28.5329C18.9196 28.6002 18.4345 28.6188 14.5467 28.6188C10.6588 28.6188 10.1737 28.6045 8.64836 28.5329C7.12441 28.4614 6.08698 28.221 5.17404 27.8675C4.21864 27.509 3.35321 26.9459 2.63842 26.2176C1.91065 25.5024 1.34761 24.6371 0.988547 23.682C0.633675 22.7705 0.394708 21.7317 0.323161 20.2077C0.255907 18.6823 0.237305 18.1972 0.237305 14.3094C0.237305 10.4215 0.251614 9.93643 0.323161 8.41105C0.394708 6.88567 0.633675 5.84967 0.988547 4.93674C1.34662 3.98113 1.90979 3.11561 2.63842 2.40111C3.35342 1.6731 4.21879 1.11002 5.17404 0.751243C6.08698 0.39637 7.12298 0.157403 8.64836 0.0858562C10.1737 0.0186021 10.6588 0 14.5467 0ZM14.5467 7.15469C12.6491 7.15469 10.8293 7.90849 9.48755 9.25025C8.14579 10.592 7.39199 12.4118 7.39199 14.3094C7.39199 16.2069 8.14579 18.0267 9.48755 19.3685C10.8293 20.7103 12.6491 21.4641 14.5467 21.4641C16.4442 21.4641 18.264 20.7103 19.6058 19.3685C20.9476 18.0267 21.7014 16.2069 21.7014 14.3094C21.7014 12.4118 20.9476 10.592 19.6058 9.25025C18.264 7.90849 16.4442 7.15469 14.5467 7.15469ZM23.8478 6.79696C23.8478 6.32257 23.6593 5.86761 23.3239 5.53217C22.9885 5.19673 22.5335 5.00828 22.0591 5.00828C21.5847 5.00828 21.1298 5.19673 20.7943 5.53217C20.4589 5.86761 20.2704 6.32257 20.2704 6.79696C20.2704 7.27134 20.4589 7.7263 20.7943 8.06174C21.1298 8.39718 21.5847 8.58563 22.0591 8.58563C22.5335 8.58563 22.9885 8.39718 23.3239 8.06174C23.6593 7.7263 23.8478 7.27134 23.8478 6.79696ZM14.5467 10.0166C15.6852 10.0166 16.7771 10.4688 17.5822 11.2739C18.3872 12.079 18.8395 13.1709 18.8395 14.3094C18.8395 15.4479 18.3872 16.5398 17.5822 17.3449C16.7771 18.1499 15.6852 18.6022 14.5467 18.6022C13.4082 18.6022 12.3163 18.1499 11.5112 17.3449C10.7061 16.5398 10.2539 15.4479 10.2539 14.3094C10.2539 13.1709 10.7061 12.079 11.5112 11.2739C12.3163 10.4688 13.4082 10.0166 14.5467 10.0166Z" fill="#262C32"/>
</svg>
