<svg width="30" height="29" viewBox="0 0 30 29" fill="none" xmlns="http://www.w3.org/2000/svg">
<path d="M26.6667 0C27.5507 0 28.3986 0.339483 29.0237 0.943767C29.6488 1.54805 30 2.36764 30 3.22222V25.7778C30 26.6324 29.6488 27.4519 29.0237 28.0562C28.3986 28.6605 27.5507 29 26.6667 29H3.33333C2.44928 29 1.60143 28.6605 0.976311 28.0562C0.351189 27.4519 0 26.6324 0 25.7778V3.22222C0 2.36764 0.351189 1.54805 0.976311 0.943767C1.60143 0.339483 2.44928 0 3.33333 0H26.6667ZM25.8333 24.9722V16.4333C25.8333 15.0404 25.2609 13.7044 24.2419 12.7195C23.223 11.7345 21.841 11.1811 20.4 11.1811C18.9833 11.1811 17.3333 12.0189 16.5333 13.2756V11.4872H11.8833V24.9722H16.5333V17.0294C16.5333 15.7889 17.5667 14.7739 18.85 14.7739C19.4688 14.7739 20.0623 15.0115 20.4999 15.4345C20.9375 15.8575 21.1833 16.4312 21.1833 17.0294V24.9722H25.8333ZM6.46667 8.95778C7.20927 8.95778 7.92146 8.67261 8.44657 8.16501C8.97167 7.65742 9.26667 6.96896 9.26667 6.25111C9.26667 4.75278 8.01667 3.52833 6.46667 3.52833C5.71964 3.52833 5.00321 3.8152 4.47498 4.32582C3.94675 4.83644 3.65 5.52899 3.65 6.25111C3.65 7.74944 4.91667 8.95778 6.46667 8.95778M8.78333 24.9722V11.4872H4.16667V24.9722H8.78333V24.9722Z" fill="#262C32"/>
</svg>
