<svg width="29" height="29" viewBox="0 0 29 29" fill="none" xmlns="http://www.w3.org/2000/svg">
<path d="M22.0955 10.9554L26.6536 15.5135C27.3932 16.2432 27.9812 17.1121 28.3836 18.0701C28.7861 19.028 28.995 20.0561 28.9985 21.0952C29.002 22.1342 28.7999 23.1637 28.4039 24.1243C28.0079 25.0849 27.4257 25.9577 26.691 26.6925C25.9563 27.4272 25.0835 28.0093 24.1229 28.4053C23.1622 28.8014 22.1328 29.0034 21.0937 29C20.0547 28.9965 19.0266 28.7875 18.0686 28.385C17.1107 27.9826 16.2418 27.3946 15.512 26.655L13.9936 25.1366C13.7883 24.9385 13.6245 24.7015 13.5118 24.4394C13.3991 24.1773 13.3397 23.8954 13.337 23.6101C13.3344 23.3248 13.3887 23.0418 13.4966 22.7777C13.6045 22.5136 13.7639 22.2736 13.9656 22.0718C14.1672 21.87 14.407 21.7103 14.671 21.6021C14.9351 21.494 15.218 21.4395 15.5033 21.4418C15.7886 21.4442 16.0705 21.5033 16.3327 21.6158C16.5949 21.7283 16.8321 21.8918 17.0304 22.097L18.5517 23.6168C19.2244 24.2834 20.1337 24.6565 21.0808 24.6542C22.0278 24.652 22.9354 24.2748 23.605 23.605C24.2746 22.9353 24.6516 22.0275 24.6535 21.0805C24.6555 20.1334 24.2822 19.2242 23.6154 18.5517L19.0573 13.9936C18.5647 13.5008 17.9389 13.1623 17.2568 13.0199C16.5746 12.8774 15.8657 12.937 15.2169 13.1915C14.9849 13.2831 14.77 13.3777 14.5666 13.4722L13.902 13.7831C13.0138 14.1841 12.3306 14.356 11.4611 13.488C10.212 12.2389 10.5357 11.0858 12.0584 10.0358C13.5754 8.99259 15.4098 8.51341 17.2432 8.68139C19.0766 8.84938 20.7933 9.65392 22.0955 10.9554V10.9554ZM13.4865 2.34643L15.0049 3.86482C15.3965 4.26987 15.6134 4.81253 15.6087 5.37591C15.6041 5.93929 15.3784 6.47831 14.9802 6.87688C14.582 7.27545 14.0432 7.50168 13.4798 7.50684C12.9164 7.512 12.3736 7.29567 11.9682 6.90446L10.4483 5.38607C10.1181 5.04395 9.723 4.77102 9.28615 4.58322C8.84929 4.39541 8.3794 4.29649 7.90391 4.29222C7.42841 4.28796 6.95683 4.37843 6.51667 4.55837C6.07652 4.73831 5.67661 5.0041 5.34027 5.34025C5.00394 5.67639 4.73792 6.07615 4.55773 6.51621C4.37754 6.95626 4.2868 7.42779 4.2908 7.90329C4.2948 8.37879 4.39345 8.84873 4.58101 9.28569C4.76857 9.72265 5.04127 10.1179 5.38321 10.4483L9.94124 15.0064C10.4339 15.4992 11.0597 15.8377 11.7418 15.9801C12.424 16.1226 13.1329 16.063 13.7816 15.8085C14.0137 15.7169 14.2286 15.6223 14.432 15.5278L15.0966 15.2169C15.9847 14.8159 16.6694 14.644 17.5375 15.512C18.7866 16.7611 18.4629 17.9142 16.9402 18.9642C15.4231 20.0074 13.5888 20.4866 11.7554 20.3186C9.92197 20.1506 8.20522 19.3461 6.90303 18.0446L2.34499 13.4865C1.60537 12.7568 1.0174 11.8879 0.614953 10.9299C0.212506 9.97198 0.00352516 8.94389 4.4215e-05 7.90484C-0.00343673 6.86579 0.198651 5.83632 0.594671 4.87569C0.990691 3.91506 1.57282 3.04226 2.30754 2.30754C3.04226 1.57282 3.91507 0.990691 4.87569 0.594671C5.83632 0.198651 6.86579 -0.00343673 7.90484 4.4215e-05C8.94388 0.00352516 9.97198 0.212506 10.9299 0.614953C11.8879 1.0174 12.7568 1.60537 13.4865 2.34499V2.34643Z" fill="#262C32"/>
</svg>
