<svg width="34" height="29" viewBox="0 0 34 29" fill="none" xmlns="http://www.w3.org/2000/svg">
<path d="M33.1429 3.41176C31.923 4.00882 30.608 4.40118 29.2456 4.58882C30.6397 3.68471 31.717 2.25176 32.224 0.528823C30.909 1.38176 29.4515 1.97882 27.9148 2.32C26.6632 0.852941 24.9047 0 22.9085 0C19.1855 0 16.1437 3.27529 16.1437 7.31824C16.1437 7.89824 16.207 8.46118 16.3179 8.99C10.678 8.68294 5.65583 5.76588 2.31303 1.34765C1.72685 2.42235 1.39415 3.68471 1.39415 5.01529C1.39415 7.55706 2.58235 9.80882 4.4201 11.0882C3.29527 11.0882 2.24966 10.7471 1.33078 10.2353V10.2865C1.33078 13.8347 3.6755 16.8029 6.78066 17.4682C5.78373 17.762 4.73711 17.8029 3.72303 17.5876C4.15332 19.0419 4.99604 20.3143 6.13272 21.2262C7.2694 22.138 8.64288 22.6434 10.0601 22.6712C7.65776 24.719 4.67992 25.8259 1.61595 25.81C1.0773 25.81 0.538651 25.7759 0 25.7076C3.01011 27.7888 6.59055 29 10.4245 29C22.9085 29 29.7684 17.8435 29.7684 8.17118C29.7684 7.84706 29.7684 7.54 29.7525 7.21588C31.0833 6.19235 32.224 4.89588 33.1429 3.41176V3.41176Z" fill="#262C32"/>
</svg>
