<svg width="51" height="35" viewBox="0 0 51 35" fill="none" xmlns="http://www.w3.org/2000/svg">
<path d="M34.3549 8.67786C35.3312 7.70155 36.9141 7.70155 37.8904 8.67786L50.2648 21.0522C51.2411 22.0285 51.2411 23.6115 50.2648 24.5878V24.5878C49.2885 25.5641 47.7055 25.5641 46.7292 24.5878L34.3549 12.2134C33.3786 11.2371 33.3786 9.65418 34.3549 8.67786V8.67786ZM9.60613 1.6068C10.5824 0.630486 12.1654 0.630486 13.1417 1.6068L41.4259 29.8911C42.4022 30.8674 42.4022 32.4503 41.4259 33.4266V33.4266C40.4496 34.4029 38.8667 34.4029 37.8904 33.4266L9.60613 5.14233C8.62982 4.16602 8.62982 2.58311 9.60613 1.6068V1.6068ZM0.767298 10.4456C1.74361 9.46932 3.32652 9.46932 4.30283 10.4456L16.6772 22.82C17.6535 23.7963 17.6535 25.3792 16.6772 26.3555V26.3555C15.7009 27.3318 14.118 27.3318 13.1417 26.3555L0.767298 13.9812C-0.209013 13.0049 -0.209012 11.4219 0.767298 10.4456V10.4456Z" fill="url(#paint0_linear_418_47)"/>
<defs>
<linearGradient id="paint0_linear_418_47" x1="41.4259" y1="33.4266" x2="9.60613" y2="1.6068" gradientUnits="userSpaceOnUse">
<stop stop-color="#DB00A4"/>
<stop offset="1" stop-color="#14E6EB"/>
</linearGradient>
</defs>
</svg>
