<svg width="43" height="43" viewBox="0 0 43 43" fill="none" xmlns="http://www.w3.org/2000/svg">
<g filter="url(#filter0_d_420_13)">
<path fill-rule="evenodd" clip-rule="evenodd" d="M19.5 2.91667C11.4458 2.91667 4.91667 9.44584 4.91667 17.5C4.91667 25.5542 11.4458 32.0833 19.5 32.0833C27.5542 32.0833 34.0833 25.5542 34.0833 17.5C34.0833 9.44584 27.5542 2.91667 19.5 2.91667ZM2 17.5C2 7.83504 9.83504 0 19.5 0C29.165 0 37 7.83504 37 17.5C37 27.165 29.165 35 19.5 35C9.83504 35 2 27.165 2 17.5Z" fill="#262C32"/>
<path fill-rule="evenodd" clip-rule="evenodd" d="M15.9877 33.156C15.8466 32.9739 15.8466 31.3518 15.9877 28.2898C14.4769 28.342 13.5225 28.2372 13.1243 27.9753C12.5269 27.5825 11.9289 26.3712 11.3982 25.5175C10.8676 24.6638 9.68989 24.5288 9.21429 24.338C8.7387 24.1471 8.61932 23.3691 10.5248 23.9575C12.4302 24.5458 12.5231 26.148 13.1243 26.5227C13.7253 26.8973 15.1624 26.7334 15.8138 26.4333C16.4652 26.1332 16.4173 25.0157 16.5334 24.573C16.6803 24.1598 16.1627 24.0682 16.1513 24.0648C15.5153 24.0648 12.1746 23.3383 11.257 20.1032C10.3394 16.8682 11.5214 14.7537 12.152 13.8447C12.5724 13.2387 12.5352 11.9472 12.0404 9.97003C13.8368 9.74048 15.2231 10.3059 16.1992 11.6664C16.2002 11.6742 17.479 10.9059 19.5001 10.9059C21.5211 10.9059 22.2381 11.5317 22.7915 11.6664C23.3448 11.801 23.7874 9.2849 27.2048 9.97003C26.4913 11.3724 25.8939 13.1247 26.3499 13.8447C26.806 14.5647 28.5959 16.8541 27.4964 20.1032C26.7634 22.2693 25.3225 23.5898 23.1737 24.0648C22.9273 24.1434 22.8041 24.2703 22.8041 24.4453C22.8041 24.7079 23.1373 24.7365 23.6171 25.9665C23.9371 26.7864 23.9602 29.1284 23.6865 32.9922C22.993 33.1688 22.4536 33.2872 22.0681 33.3478C21.3846 33.4552 20.6424 33.5155 19.9132 33.5387C19.1841 33.562 18.9308 33.5594 17.9227 33.4655C17.2507 33.403 16.6057 33.2998 15.9877 33.156Z" fill="#262C32"/>
</g>
<defs>
<filter id="filter0_d_420_13" x="0" y="0" width="43" height="43" filterUnits="userSpaceOnUse" color-interpolation-filters="sRGB">
<feFlood flood-opacity="0" result="BackgroundImageFix"/>
<feColorMatrix in="SourceAlpha" type="matrix" values="0 0 0 0 0 0 0 0 0 0 0 0 0 0 0 0 0 0 127 0" result="hardAlpha"/>
<feOffset dx="2" dy="4"/>
<feGaussianBlur stdDeviation="2"/>
<feComposite in2="hardAlpha" operator="out"/>
<feColorMatrix type="matrix" values="0 0 0 0 0.150955 0 0 0 0 0.174292 0 0 0 0 0.195833 0 0 0 0.25 0"/>
<feBlend mode="normal" in2="BackgroundImageFix" result="effect1_dropShadow_420_13"/>
<feBlend mode="normal" in="SourceGraphic" in2="effect1_dropShadow_420_13" result="shape"/>
</filter>
</defs>
</svg>
