<svg width="35" height="35" viewBox="0 0 35 35" fill="none" xmlns="http://www.w3.org/2000/svg">
<g filter="url(#filter0_d_420_28)">
<path d="M28.2894 8.13917C28.2747 7.03466 28.0679 5.94113 27.6783 4.9075C27.3405 4.03564 26.8245 3.24383 26.1634 2.58267C25.5022 1.92151 24.7104 1.40553 23.8386 1.06771C22.8182 0.684687 21.7403 0.477581 20.6506 0.455208C19.2477 0.3925 18.8029 0.375 15.2417 0.375C11.6804 0.375 11.224 0.375 9.83126 0.455208C8.74212 0.477746 7.66469 0.684849 6.6448 1.06771C5.77281 1.4053 4.98088 1.92119 4.31969 2.58238C3.65849 3.24357 3.1426 4.0355 2.80501 4.9075C2.42122 5.92707 2.21457 7.00474 2.19397 8.09396C2.13126 9.49833 2.1123 9.94313 2.1123 13.5044C2.1123 17.0656 2.1123 17.5206 2.19397 18.9148C2.21585 20.0056 2.42147 21.0819 2.80501 22.1042C3.14317 22.9759 3.65944 23.7675 4.32086 24.4284C4.98227 25.0893 5.77427 25.605 6.64626 25.9425C7.66335 26.3409 8.74097 26.5628 9.83272 26.5987C11.2371 26.6615 11.6819 26.6804 15.2431 26.6804C18.8044 26.6804 19.2608 26.6804 20.6536 26.5987C21.7432 26.5773 22.8212 26.3707 23.8415 25.9877C24.7131 25.6495 25.5047 25.1334 26.1658 24.4723C26.8269 23.8112 27.343 23.0196 27.6813 22.1479C28.0648 21.1271 28.2704 20.0508 28.2923 18.9585C28.355 17.5556 28.374 17.1108 28.374 13.5481C28.3711 9.98688 28.3711 9.53479 28.2894 8.13917V8.13917ZM15.2329 20.239C11.5083 20.239 8.49105 17.2217 8.49105 13.4971C8.49105 9.7725 11.5083 6.75521 15.2329 6.75521C17.021 6.75521 18.7358 7.46551 20.0002 8.72986C21.2645 9.99421 21.9748 11.709 21.9748 13.4971C21.9748 15.2851 21.2645 17 20.0002 18.2643C18.7358 19.5287 17.021 20.239 15.2329 20.239V20.239ZM22.2431 8.07792C22.0366 8.07811 21.8321 8.03758 21.6413 7.95864C21.4505 7.8797 21.2771 7.76391 21.1311 7.61789C20.9851 7.47187 20.8693 7.29849 20.7903 7.10767C20.7114 6.91685 20.6709 6.71234 20.6711 6.50583C20.6711 6.29948 20.7117 6.09515 20.7907 5.9045C20.8696 5.71386 20.9854 5.54063 21.1313 5.39472C21.2772 5.2488 21.4504 5.13306 21.6411 5.05409C21.8317 4.97512 22.0361 4.93448 22.2424 4.93448C22.4488 4.93448 22.6531 4.97512 22.8437 5.05409C23.0344 5.13306 23.2076 5.2488 23.3535 5.39472C23.4994 5.54063 23.6152 5.71386 23.6942 5.9045C23.7731 6.09515 23.8138 6.29948 23.8138 6.50583C23.8138 7.375 23.1108 8.07792 22.2431 8.07792Z" fill="#262C32"/>
<path d="M15.2329 17.8779C17.6516 17.8779 19.6123 15.9172 19.6123 13.4985C19.6123 11.0799 17.6516 9.11914 15.2329 9.11914C12.8142 9.11914 10.8535 11.0799 10.8535 13.4985C10.8535 15.9172 12.8142 17.8779 15.2329 17.8779Z" fill="#262C32"/>
</g>
<defs>
<filter id="filter0_d_420_28" x="0.112305" y="0.375" width="34.2617" height="34.3047" filterUnits="userSpaceOnUse" color-interpolation-filters="sRGB">
<feFlood flood-opacity="0" result="BackgroundImageFix"/>
<feColorMatrix in="SourceAlpha" type="matrix" values="0 0 0 0 0 0 0 0 0 0 0 0 0 0 0 0 0 0 127 0" result="hardAlpha"/>
<feOffset dx="2" dy="4"/>
<feGaussianBlur stdDeviation="2"/>
<feComposite in2="hardAlpha" operator="out"/>
<feColorMatrix type="matrix" values="0 0 0 0 0.150955 0 0 0 0 0.174292 0 0 0 0 0.195833 0 0 0 0.25 0"/>
<feBlend mode="normal" in2="BackgroundImageFix" result="effect1_dropShadow_420_28"/>
<feBlend mode="normal" in="SourceGraphic" in2="effect1_dropShadow_420_28" result="shape"/>
</filter>
</defs>
</svg>
