<svg width="42" height="36" viewBox="0 0 42 36" fill="none" xmlns="http://www.w3.org/2000/svg">
<g filter="url(#filter0_d_420_17)">
<path d="M35.1119 3.56805C33.8942 4.10763 32.5861 4.47221 31.2109 4.63701C32.6299 3.78795 33.6914 2.45164 34.1976 0.877423C32.8644 1.66928 31.4054 2.22667 29.8838 2.52534C28.8606 1.43285 27.5054 0.708732 26.0285 0.465406C24.5515 0.22208 23.0356 0.47316 21.716 1.17967C20.3964 1.88617 19.347 3.00858 18.7307 4.37262C18.1144 5.73666 17.9656 7.26602 18.3076 8.72326C15.6063 8.58762 12.9637 7.88551 10.5513 6.66249C8.13893 5.43947 6.01067 3.72287 4.30465 1.62409C3.72131 2.63034 3.3859 3.79701 3.3859 5.03951C3.38525 6.15804 3.6607 7.25944 4.1878 8.24599C4.71491 9.23254 5.47738 10.0737 6.40756 10.6949C5.3288 10.6606 4.27384 10.3691 3.33048 9.84471V9.93221C3.33037 11.501 3.87303 13.0215 4.86637 14.2357C5.85972 15.45 7.24256 16.2832 8.78027 16.5939C7.77954 16.8647 6.73035 16.9046 5.71194 16.7105C6.14579 18.0604 6.99089 19.2408 8.12893 20.0865C9.26698 20.9322 10.641 21.4008 12.0586 21.4268C9.65211 23.3159 6.68011 24.3407 3.62069 24.3362C3.07875 24.3363 2.53726 24.3047 1.99902 24.2414C5.10451 26.2381 8.71952 27.2978 12.4115 27.2937C24.9094 27.2937 31.7417 16.9424 31.7417 7.96492C31.7417 7.67326 31.7344 7.37867 31.7213 7.08701C33.0503 6.12593 34.1974 4.93581 35.109 3.57242L35.1119 3.56805V3.56805Z" fill="#262C32"/>
</g>
<defs>
<filter id="filter0_d_420_17" x="-0.000976562" y="0.375" width="41.1133" height="34.918" filterUnits="userSpaceOnUse" color-interpolation-filters="sRGB">
<feFlood flood-opacity="0" result="BackgroundImageFix"/>
<feColorMatrix in="SourceAlpha" type="matrix" values="0 0 0 0 0 0 0 0 0 0 0 0 0 0 0 0 0 0 127 0" result="hardAlpha"/>
<feOffset dx="2" dy="4"/>
<feGaussianBlur stdDeviation="2"/>
<feComposite in2="hardAlpha" operator="out"/>
<feColorMatrix type="matrix" values="0 0 0 0 0.150955 0 0 0 0 0.174292 0 0 0 0 0.195833 0 0 0 0.25 0"/>
<feBlend mode="normal" in2="BackgroundImageFix" result="effect1_dropShadow_420_17"/>
<feBlend mode="normal" in="SourceGraphic" in2="effect1_dropShadow_420_17" result="shape"/>
</filter>
</defs>
</svg>
