<svg width="801" height="196" viewBox="0 0 801 196" fill="none" xmlns="http://www.w3.org/2000/svg">
<path d="M89.1836 158H74.1689V105.485C74.1689 100.31 73.1924 95.4512 71.2393 90.9102C69.2861 86.3691 66.6006 82.4141 63.1826 79.0449C59.8135 75.627 55.834 72.9414 51.2441 70.9883C46.7031 68.9863 41.8447 67.9854 36.6689 67.9854H28.6123V158H13.5977V52.9707H36.6689C41.4541 52.9707 46.0439 53.6055 50.4385 54.875C54.8818 56.0957 59.0322 57.8291 62.8896 60.0752C66.7471 62.3213 70.2627 65.0068 73.4365 68.1318C76.6104 71.2568 79.3691 74.7236 81.7129 78.5322C84.0078 74.7236 86.7422 71.2568 89.916 68.1318C93.0898 65.0068 96.6055 62.3213 100.463 60.0752C104.32 57.8291 108.446 56.0957 112.841 54.875C117.284 53.6055 121.898 52.9707 126.684 52.9707H149.828V158H134.813V67.9854H126.684C121.508 67.9854 116.649 68.9863 112.108 70.9883C107.567 72.9414 103.588 75.627 100.17 79.0449C96.8008 82.4141 94.1152 86.3691 92.1133 90.9102C90.1602 95.4512 89.1836 100.31 89.1836 105.485V158ZM270.312 158H249.877L226.439 135.661H196.044V120.793H237.572C239.672 120.793 241.649 120.378 243.505 119.548C245.36 118.718 246.972 117.619 248.339 116.252C249.706 114.836 250.78 113.2 251.562 111.345C252.343 109.489 252.733 107.536 252.733 105.485C252.733 103.386 252.343 101.433 251.562 99.626C250.78 97.7705 249.706 96.1592 248.339 94.792C246.972 93.4248 245.36 92.3506 243.505 91.5693C241.649 90.7393 239.672 90.3242 237.572 90.3242H188.207V158H173.192V75.5293H237.572C241.723 75.5293 245.629 76.335 249.291 77.9463C252.953 79.5088 256.127 81.6572 258.812 84.3916C261.547 87.0771 263.695 90.251 265.258 93.9131C266.82 97.5264 267.602 101.384 267.602 105.485C267.602 108.854 267.064 112.102 265.99 115.227C264.916 118.303 263.402 121.135 261.449 123.723C259.545 126.262 257.274 128.459 254.638 130.314C252.001 132.17 249.12 133.537 245.995 134.416L270.312 158ZM451.146 105.485C451.146 110.368 450.512 115.056 449.242 119.548C448.021 123.991 446.264 128.166 443.969 132.072C441.723 135.93 439.013 139.47 435.839 142.692C432.665 145.866 429.125 148.601 425.219 150.896C421.361 153.142 417.187 154.899 412.694 156.169C408.202 157.39 403.539 158 398.705 158H336.449V142.985H398.705C403.881 142.985 408.739 142.009 413.28 140.056C417.821 138.103 421.776 135.441 425.146 132.072C428.563 128.654 431.249 124.675 433.202 120.134C435.204 115.544 436.205 110.661 436.205 105.485V67.9854H336.449V52.9707H451.146V105.485ZM565.99 158H550.976V135.368H493.188V120.061H550.976V90.3242H511.938C508.275 90.3242 504.833 91.0322 501.61 92.4482C498.388 93.8154 495.58 95.6953 493.188 98.0879C490.795 100.48 488.891 103.288 487.475 106.511C486.107 109.685 485.424 113.103 485.424 116.765V158H470.263V116.765C470.263 111.003 471.361 105.607 473.559 100.578C475.756 95.5488 478.734 91.1543 482.494 87.3945C486.254 83.6348 490.673 80.6807 495.751 78.5322C500.829 76.335 506.225 75.2363 511.938 75.2363H565.99V158ZM684.716 158H664.281L640.844 135.661H610.448V120.793H651.977C654.076 120.793 656.054 120.378 657.909 119.548C659.765 118.718 661.376 117.619 662.743 116.252C664.11 114.836 665.185 113.2 665.966 111.345C666.747 109.489 667.138 107.536 667.138 105.485C667.138 103.386 666.747 101.433 665.966 99.626C665.185 97.7705 664.11 96.1592 662.743 94.792C661.376 93.4248 659.765 92.3506 657.909 91.5693C656.054 90.7393 654.076 90.3242 651.977 90.3242H602.611V158H587.597V75.5293H651.977C656.127 75.5293 660.033 76.335 663.695 77.9463C667.357 79.5088 670.531 81.6572 673.217 84.3916C675.951 87.0771 678.1 90.251 679.662 93.9131C681.225 97.5264 682.006 101.384 682.006 105.485C682.006 108.854 681.469 112.102 680.395 115.227C679.32 118.303 677.807 121.135 675.854 123.723C673.949 126.262 671.679 128.459 669.042 130.314C666.405 132.17 663.524 133.537 660.399 134.416L684.716 158ZM797.509 158H777.221L737.67 118.229L714.818 134.782V158H699.804V75.5293H714.818V117.497L773.778 75.5293H796.703L749.169 109.88L797.509 158Z" fill="#FFFFF0"/>
<line x1="7.5" y1="7.5" x2="792.5" y2="7.5" stroke="url(#paint0_linear_36_5)" stroke-width="15" stroke-linecap="round"/>
<line x1="8.5" y1="188.5" x2="793.5" y2="188.5" stroke="url(#paint1_linear_36_5)" stroke-width="15" stroke-linecap="round"/>
<defs>
<linearGradient id="paint0_linear_36_5" x1="800.25" y1="15" x2="0" y2="15" gradientUnits="userSpaceOnUse">
<stop stop-color="#DB00A4"/>
<stop offset="1" stop-color="#14E6EB"/>
</linearGradient>
<linearGradient id="paint1_linear_36_5" x1="801.25" y1="196" x2="1" y2="196" gradientUnits="userSpaceOnUse">
<stop stop-color="#DB00A4"/>
<stop offset="1" stop-color="#14E6EB"/>
</linearGradient>
</defs>
</svg>
