<svg width="35" height="35" viewBox="0 0 35 35" fill="none" xmlns="http://www.w3.org/2000/svg">
<g filter="url(#filter0_d_421_15)">
<path d="M28.2904 8.13917C28.2757 7.03466 28.0689 5.94113 27.6793 4.9075C27.3415 4.03564 26.8255 3.24383 26.1644 2.58267C25.5032 1.92151 24.7114 1.40553 23.8395 1.06771C22.8192 0.684687 21.7412 0.477581 20.6516 0.455208C19.2487 0.3925 18.8039 0.375 15.2427 0.375C11.6814 0.375 11.2249 0.375 9.83224 0.455208C8.7431 0.477746 7.66566 0.684849 6.64578 1.06771C5.77378 1.4053 4.98185 1.92119 4.32066 2.58238C3.65947 3.24357 3.14358 4.0355 2.80599 4.9075C2.4222 5.92707 2.21554 7.00474 2.19495 8.09396C2.13224 9.49833 2.11328 9.94313 2.11328 13.5044C2.11328 17.0656 2.11328 17.5206 2.19495 18.9148C2.21682 20.0056 2.42245 21.0819 2.80599 22.1042C3.14414 22.9759 3.66042 23.7675 4.32183 24.4284C4.98325 25.0893 5.77525 25.605 6.64724 25.9425C7.66433 26.3409 8.74195 26.5628 9.8337 26.5987C11.2381 26.6615 11.6829 26.6804 15.2441 26.6804C18.8054 26.6804 19.2618 26.6804 20.6545 26.5987C21.7441 26.5773 22.8221 26.3707 23.8424 25.9877C24.7141 25.6495 25.5057 25.1334 26.1668 24.4723C26.8279 23.8112 27.344 23.0196 27.6822 22.1479C28.0658 21.1271 28.2714 20.0508 28.2933 18.9585C28.356 17.5556 28.3749 17.1108 28.3749 13.5481C28.372 9.98688 28.372 9.53479 28.2904 8.13917ZM15.2339 20.239C11.5093 20.239 8.49203 17.2217 8.49203 13.4971C8.49203 9.7725 11.5093 6.75521 15.2339 6.75521C17.022 6.75521 18.7368 7.46551 20.0011 8.72986C21.2655 9.99421 21.9758 11.709 21.9758 13.4971C21.9758 15.2851 21.2655 17 20.0011 18.2643C18.7368 19.5287 17.022 20.239 15.2339 20.239ZM22.2441 8.07792C22.0376 8.07811 21.8331 8.03758 21.6423 7.95864C21.4515 7.8797 21.2781 7.76391 21.1321 7.61789C20.986 7.47187 20.8702 7.29849 20.7913 7.10767C20.7124 6.91685 20.6718 6.71234 20.672 6.50583C20.672 6.29948 20.7127 6.09515 20.7916 5.9045C20.8706 5.71386 20.9864 5.54063 21.1323 5.39472C21.2782 5.2488 21.4514 5.13306 21.6421 5.05409C21.8327 4.97512 22.037 4.93448 22.2434 4.93448C22.4497 4.93448 22.6541 4.97512 22.8447 5.05409C23.0354 5.13306 23.2086 5.2488 23.3545 5.39472C23.5004 5.54063 23.6162 5.71386 23.6951 5.9045C23.7741 6.09515 23.8147 6.29948 23.8147 6.50583C23.8147 7.375 23.1118 8.07792 22.2441 8.07792Z" fill="#262C32"/>
<path d="M15.2339 17.8779C17.6525 17.8779 19.6132 15.9172 19.6132 13.4985C19.6132 11.0799 17.6525 9.11914 15.2339 9.11914C12.8152 9.11914 10.8545 11.0799 10.8545 13.4985C10.8545 15.9172 12.8152 17.8779 15.2339 17.8779Z" fill="#262C32"/>
</g>
<defs>
<filter id="filter0_d_421_15" x="0.113281" y="0.375" width="34.2617" height="34.3047" filterUnits="userSpaceOnUse" color-interpolation-filters="sRGB">
<feFlood flood-opacity="0" result="BackgroundImageFix"/>
<feColorMatrix in="SourceAlpha" type="matrix" values="0 0 0 0 0 0 0 0 0 0 0 0 0 0 0 0 0 0 127 0" result="hardAlpha"/>
<feOffset dx="2" dy="4"/>
<feGaussianBlur stdDeviation="2"/>
<feComposite in2="hardAlpha" operator="out"/>
<feColorMatrix type="matrix" values="0 0 0 0 0.150955 0 0 0 0 0.174292 0 0 0 0 0.195833 0 0 0 0.25 0"/>
<feBlend mode="normal" in2="BackgroundImageFix" result="effect1_dropShadow_421_15"/>
<feBlend mode="normal" in="SourceGraphic" in2="effect1_dropShadow_421_15" result="shape"/>
</filter>
</defs>
</svg>
