<svg width="42" height="36" viewBox="0 0 42 36" fill="none" xmlns="http://www.w3.org/2000/svg">
<g filter="url(#filter0_d_421_14)">
<path d="M35.1129 3.56805C33.8952 4.10763 32.5871 4.47221 31.2119 4.63701C32.6308 3.78795 33.6924 2.45164 34.1985 0.877423C32.8654 1.66928 31.4063 2.22667 29.8848 2.52534C28.8616 1.43285 27.5063 0.708732 26.0294 0.465406C24.5525 0.22208 23.0366 0.47316 21.717 1.17967C20.3974 1.88617 19.348 3.00858 18.7317 4.37262C18.1154 5.73666 17.9666 7.26602 18.3085 8.72326C15.6073 8.58762 12.9647 7.88551 10.5523 6.66249C8.1399 5.43947 6.01164 3.72287 4.30562 1.62409C3.72229 2.63034 3.38688 3.79701 3.38688 5.03951C3.38622 6.15804 3.66167 7.25944 4.18878 8.24599C4.71589 9.23254 5.47836 10.0737 6.40854 10.6949C5.32978 10.6606 4.27481 10.3691 3.33146 9.84471V9.93221C3.33135 11.501 3.87401 13.0215 4.86735 14.2358C5.86069 15.45 7.24354 16.2832 8.78125 16.5939C7.78052 16.8647 6.73133 16.9046 5.71292 16.7105C6.14677 18.0604 6.99187 19.2408 8.12991 20.0865C9.26795 20.9322 10.642 21.4008 12.0596 21.4268C9.65309 23.3159 6.68109 24.3407 3.62167 24.3362C3.07972 24.3363 2.53824 24.3047 2 24.2414C5.10549 26.2381 8.7205 27.2978 12.4125 27.2937C24.9104 27.2937 31.7427 16.9424 31.7427 7.96492C31.7427 7.67326 31.7354 7.37867 31.7223 7.08701C33.0513 6.12593 34.1984 4.93581 35.11 3.57242L35.1129 3.56805Z" fill="#262C32"/>
</g>
<defs>
<filter id="filter0_d_421_14" x="0" y="0.375" width="41.1133" height="34.918" filterUnits="userSpaceOnUse" color-interpolation-filters="sRGB">
<feFlood flood-opacity="0" result="BackgroundImageFix"/>
<feColorMatrix in="SourceAlpha" type="matrix" values="0 0 0 0 0 0 0 0 0 0 0 0 0 0 0 0 0 0 127 0" result="hardAlpha"/>
<feOffset dx="2" dy="4"/>
<feGaussianBlur stdDeviation="2"/>
<feComposite in2="hardAlpha" operator="out"/>
<feColorMatrix type="matrix" values="0 0 0 0 0.150955 0 0 0 0 0.174292 0 0 0 0 0.195833 0 0 0 0.25 0"/>
<feBlend mode="normal" in2="BackgroundImageFix" result="effect1_dropShadow_421_14"/>
<feBlend mode="normal" in="SourceGraphic" in2="effect1_dropShadow_421_14" result="shape"/>
</filter>
</defs>
</svg>
